M48
; DRILL file {KiCad (5.1.8)-1} date 12/17/21 21:49:03
; FORMAT={-:-/ absolute / inch / decimal}
; #@! TF.CreationDate,2021-12-17T21:49:03+01:00
; #@! TF.GenerationSoftware,Kicad,Pcbnew,(5.1.8)-1
; #@! TF.FileFunction,Plated,1,2,PTH
FMAT,2
INCH
T1C0.0157
T2C0.0394
T3C0.0433
T4C0.0520
T5C0.0591
%
G90
G05
T1
X4.65Y-2.35
X4.76Y-3.98
X4.88Y-2.54
X4.88Y-3.76
X5.19Y-3.76
X5.22Y-3.96
X5.37Y-2.565
X5.41Y-3.03
X5.46Y-3.96
X5.48Y-2.68
X5.51Y-3.76
X5.65Y-2.62
X5.71Y-2.46
X5.83Y-3.76
X6.015Y-2.305
X6.015Y-2.35
X6.015Y-2.395
X6.055Y-2.825
X6.09Y-2.66
X6.13Y-3.76
X6.15Y-2.35
X6.4Y-3.98
X6.41Y-2.82
X6.41Y-2.9
X6.41Y-2.97
X6.42Y-2.43
X6.45Y-3.76
X6.89Y-2.63
X6.89Y-2.7
X6.89Y-2.78
T2
X6.5Y-4.0
X6.6Y-4.0
X6.7Y-4.0
X6.8Y-4.0
X6.9Y-4.0
X7.0Y-4.0
X5.6Y-4.0
X5.7Y-4.0
X5.8Y-4.0
X5.9Y-4.0
X6.0Y-4.0
X6.1Y-4.0
X6.2Y-4.0
X6.3Y-4.0
X5.24Y-2.1
X5.34Y-2.1
X5.44Y-2.1
X5.54Y-2.1
X5.64Y-2.1
X5.74Y-2.1
X5.84Y-2.1
X5.94Y-2.1
X6.04Y-2.1
X6.14Y-2.1
X6.3Y-2.1
X6.4Y-2.1
X6.5Y-2.1
X6.6Y-2.1
X6.7Y-2.1
X6.8Y-2.1
X6.9Y-2.1
X7.0Y-2.1
T3
X4.9331Y-3.3717
X4.9331Y-3.6276
X5.1102Y-3.3717
X5.1102Y-3.6276
X6.1929Y-3.3717
X6.1929Y-3.6276
X6.3701Y-3.3717
X6.3701Y-3.6276
X4.6181Y-3.3717
X4.6181Y-3.6276
X4.7953Y-3.3717
X4.7953Y-3.6276
X5.248Y-3.3717
X5.248Y-3.6276
X5.4252Y-3.3717
X5.4252Y-3.6276
X5.563Y-3.3717
X5.563Y-3.6276
X5.7402Y-3.3717
X5.7402Y-3.6276
X6.5079Y-3.3717
X6.5079Y-3.6276
X6.685Y-3.3717
X6.685Y-3.6276
X5.878Y-3.3717
X5.878Y-3.6276
X6.0551Y-3.3717
X6.0551Y-3.6276
X6.8228Y-3.3717
X6.8228Y-3.6276
X7.0Y-3.3717
X7.0Y-3.6276
T4
X6.8622Y-2.9189
X6.8622Y-3.1157
T5
X6.5079Y-2.2457
X6.5079Y-2.5646
X6.8622Y-2.2457
T0
M30
