%TF.GenerationSoftware,KiCad,Pcbnew,(5.1.8)-1*%
%TF.CreationDate,2021-12-17T21:48:39+01:00*%
%TF.ProjectId,ArduinoAudioShield,41726475-696e-46f4-9175-64696f536869,rev?*%
%TF.SameCoordinates,Original*%
%TF.FileFunction,Soldermask,Top*%
%TF.FilePolarity,Negative*%
%FSLAX46Y46*%
G04 Gerber Fmt 4.6, Leading zero omitted, Abs format (unit mm)*
G04 Created by KiCad (PCBNEW (5.1.8)-1) date 2021-12-17 21:48:39*
%MOMM*%
%LPD*%
G01*
G04 APERTURE LIST*
%ADD10C,1.600000*%
%ADD11C,1.900000*%
%ADD12C,3.200000*%
%ADD13R,2.514000X3.200000*%
%ADD14C,2.000000*%
%ADD15R,1.500000X2.000000*%
%ADD16R,3.800000X2.000000*%
%ADD17O,3.960000X1.980000*%
%ADD18R,3.960000X1.980000*%
%ADD19O,1.700000X1.700000*%
%ADD20R,1.700000X1.700000*%
G04 APERTURE END LIST*
D10*
%TO.C,J5*%
X169800000Y-57840000D03*
X175300000Y-64340000D03*
D11*
X165300000Y-65140000D03*
X165300000Y-57040000D03*
X174300000Y-57040000D03*
%TD*%
D12*
%TO.C,REF\u002A\u002A*%
X180340000Y-68580000D03*
%TD*%
%TO.C,REF\u002A\u002A*%
X128270000Y-101600000D03*
%TD*%
%TO.C,REF\u002A\u002A*%
X180340000Y-96520000D03*
%TD*%
%TO.C,REF\u002A\u002A*%
X129540000Y-53340000D03*
%TD*%
D13*
%TO.C,U1*%
X142494000Y-72390000D03*
G36*
G01*
X144319000Y-70635000D02*
X144319000Y-70335000D01*
G75*
G02*
X144469000Y-70185000I150000J0D01*
G01*
X145794000Y-70185000D01*
G75*
G02*
X145944000Y-70335000I0J-150000D01*
G01*
X145944000Y-70635000D01*
G75*
G02*
X145794000Y-70785000I-150000J0D01*
G01*
X144469000Y-70785000D01*
G75*
G02*
X144319000Y-70635000I0J150000D01*
G01*
G37*
G36*
G01*
X144319000Y-71905000D02*
X144319000Y-71605000D01*
G75*
G02*
X144469000Y-71455000I150000J0D01*
G01*
X145794000Y-71455000D01*
G75*
G02*
X145944000Y-71605000I0J-150000D01*
G01*
X145944000Y-71905000D01*
G75*
G02*
X145794000Y-72055000I-150000J0D01*
G01*
X144469000Y-72055000D01*
G75*
G02*
X144319000Y-71905000I0J150000D01*
G01*
G37*
G36*
G01*
X144319000Y-73175000D02*
X144319000Y-72875000D01*
G75*
G02*
X144469000Y-72725000I150000J0D01*
G01*
X145794000Y-72725000D01*
G75*
G02*
X145944000Y-72875000I0J-150000D01*
G01*
X145944000Y-73175000D01*
G75*
G02*
X145794000Y-73325000I-150000J0D01*
G01*
X144469000Y-73325000D01*
G75*
G02*
X144319000Y-73175000I0J150000D01*
G01*
G37*
G36*
G01*
X144319000Y-74445000D02*
X144319000Y-74145000D01*
G75*
G02*
X144469000Y-73995000I150000J0D01*
G01*
X145794000Y-73995000D01*
G75*
G02*
X145944000Y-74145000I0J-150000D01*
G01*
X145944000Y-74445000D01*
G75*
G02*
X145794000Y-74595000I-150000J0D01*
G01*
X144469000Y-74595000D01*
G75*
G02*
X144319000Y-74445000I0J150000D01*
G01*
G37*
G36*
G01*
X139044000Y-74445000D02*
X139044000Y-74145000D01*
G75*
G02*
X139194000Y-73995000I150000J0D01*
G01*
X140519000Y-73995000D01*
G75*
G02*
X140669000Y-74145000I0J-150000D01*
G01*
X140669000Y-74445000D01*
G75*
G02*
X140519000Y-74595000I-150000J0D01*
G01*
X139194000Y-74595000D01*
G75*
G02*
X139044000Y-74445000I0J150000D01*
G01*
G37*
G36*
G01*
X139044000Y-73175000D02*
X139044000Y-72875000D01*
G75*
G02*
X139194000Y-72725000I150000J0D01*
G01*
X140519000Y-72725000D01*
G75*
G02*
X140669000Y-72875000I0J-150000D01*
G01*
X140669000Y-73175000D01*
G75*
G02*
X140519000Y-73325000I-150000J0D01*
G01*
X139194000Y-73325000D01*
G75*
G02*
X139044000Y-73175000I0J150000D01*
G01*
G37*
G36*
G01*
X139044000Y-71905000D02*
X139044000Y-71605000D01*
G75*
G02*
X139194000Y-71455000I150000J0D01*
G01*
X140519000Y-71455000D01*
G75*
G02*
X140669000Y-71605000I0J-150000D01*
G01*
X140669000Y-71905000D01*
G75*
G02*
X140519000Y-72055000I-150000J0D01*
G01*
X139194000Y-72055000D01*
G75*
G02*
X139044000Y-71905000I0J150000D01*
G01*
G37*
G36*
G01*
X139044000Y-70635000D02*
X139044000Y-70335000D01*
G75*
G02*
X139194000Y-70185000I150000J0D01*
G01*
X140519000Y-70185000D01*
G75*
G02*
X140669000Y-70335000I0J-150000D01*
G01*
X140669000Y-70635000D01*
G75*
G02*
X140519000Y-70785000I-150000J0D01*
G01*
X139194000Y-70785000D01*
G75*
G02*
X139044000Y-70635000I0J150000D01*
G01*
G37*
%TD*%
D14*
%TO.C,SW8*%
X173300000Y-85640000D03*
X177800000Y-85640000D03*
X173300000Y-92140000D03*
X177800000Y-92140000D03*
%TD*%
%TO.C,SW7*%
X165300000Y-85640000D03*
X169800000Y-85640000D03*
X165300000Y-92140000D03*
X169800000Y-92140000D03*
%TD*%
%TO.C,SW6*%
X157300000Y-85640000D03*
X161800000Y-85640000D03*
X157300000Y-92140000D03*
X161800000Y-92140000D03*
%TD*%
%TO.C,SW5*%
X149300000Y-85640000D03*
X153800000Y-85640000D03*
X149300000Y-92140000D03*
X153800000Y-92140000D03*
%TD*%
%TO.C,SW4*%
X141300000Y-85640000D03*
X145800000Y-85640000D03*
X141300000Y-92140000D03*
X145800000Y-92140000D03*
%TD*%
%TO.C,SW3*%
X133300000Y-85640000D03*
X137800000Y-85640000D03*
X133300000Y-92140000D03*
X137800000Y-92140000D03*
%TD*%
%TO.C,SW2*%
X125300000Y-85640000D03*
X129800000Y-85640000D03*
X125300000Y-92140000D03*
X129800000Y-92140000D03*
%TD*%
%TO.C,SW1*%
X117300000Y-85640000D03*
X121800000Y-85640000D03*
X117300000Y-92140000D03*
X121800000Y-92140000D03*
%TD*%
%TO.C,R14*%
G36*
G01*
X175400000Y-95189999D02*
X175400000Y-96090001D01*
G75*
G02*
X175150001Y-96340000I-249999J0D01*
G01*
X174449999Y-96340000D01*
G75*
G02*
X174200000Y-96090001I0J249999D01*
G01*
X174200000Y-95189999D01*
G75*
G02*
X174449999Y-94940000I249999J0D01*
G01*
X175150001Y-94940000D01*
G75*
G02*
X175400000Y-95189999I0J-249999D01*
G01*
G37*
G36*
G01*
X177400000Y-95189999D02*
X177400000Y-96090001D01*
G75*
G02*
X177150001Y-96340000I-249999J0D01*
G01*
X176449999Y-96340000D01*
G75*
G02*
X176200000Y-96090001I0J249999D01*
G01*
X176200000Y-95189999D01*
G75*
G02*
X176449999Y-94940000I249999J0D01*
G01*
X177150001Y-94940000D01*
G75*
G02*
X177400000Y-95189999I0J-249999D01*
G01*
G37*
%TD*%
%TO.C,R13*%
G36*
G01*
X167400000Y-95189999D02*
X167400000Y-96090001D01*
G75*
G02*
X167150001Y-96340000I-249999J0D01*
G01*
X166449999Y-96340000D01*
G75*
G02*
X166200000Y-96090001I0J249999D01*
G01*
X166200000Y-95189999D01*
G75*
G02*
X166449999Y-94940000I249999J0D01*
G01*
X167150001Y-94940000D01*
G75*
G02*
X167400000Y-95189999I0J-249999D01*
G01*
G37*
G36*
G01*
X169400000Y-95189999D02*
X169400000Y-96090001D01*
G75*
G02*
X169150001Y-96340000I-249999J0D01*
G01*
X168449999Y-96340000D01*
G75*
G02*
X168200000Y-96090001I0J249999D01*
G01*
X168200000Y-95189999D01*
G75*
G02*
X168449999Y-94940000I249999J0D01*
G01*
X169150001Y-94940000D01*
G75*
G02*
X169400000Y-95189999I0J-249999D01*
G01*
G37*
%TD*%
%TO.C,R12*%
G36*
G01*
X159400000Y-95189999D02*
X159400000Y-96090001D01*
G75*
G02*
X159150001Y-96340000I-249999J0D01*
G01*
X158449999Y-96340000D01*
G75*
G02*
X158200000Y-96090001I0J249999D01*
G01*
X158200000Y-95189999D01*
G75*
G02*
X158449999Y-94940000I249999J0D01*
G01*
X159150001Y-94940000D01*
G75*
G02*
X159400000Y-95189999I0J-249999D01*
G01*
G37*
G36*
G01*
X161400000Y-95189999D02*
X161400000Y-96090001D01*
G75*
G02*
X161150001Y-96340000I-249999J0D01*
G01*
X160449999Y-96340000D01*
G75*
G02*
X160200000Y-96090001I0J249999D01*
G01*
X160200000Y-95189999D01*
G75*
G02*
X160449999Y-94940000I249999J0D01*
G01*
X161150001Y-94940000D01*
G75*
G02*
X161400000Y-95189999I0J-249999D01*
G01*
G37*
%TD*%
%TO.C,R11*%
G36*
G01*
X151400000Y-95189999D02*
X151400000Y-96090001D01*
G75*
G02*
X151150001Y-96340000I-249999J0D01*
G01*
X150449999Y-96340000D01*
G75*
G02*
X150200000Y-96090001I0J249999D01*
G01*
X150200000Y-95189999D01*
G75*
G02*
X150449999Y-94940000I249999J0D01*
G01*
X151150001Y-94940000D01*
G75*
G02*
X151400000Y-95189999I0J-249999D01*
G01*
G37*
G36*
G01*
X153400000Y-95189999D02*
X153400000Y-96090001D01*
G75*
G02*
X153150001Y-96340000I-249999J0D01*
G01*
X152449999Y-96340000D01*
G75*
G02*
X152200000Y-96090001I0J249999D01*
G01*
X152200000Y-95189999D01*
G75*
G02*
X152449999Y-94940000I249999J0D01*
G01*
X153150001Y-94940000D01*
G75*
G02*
X153400000Y-95189999I0J-249999D01*
G01*
G37*
%TD*%
%TO.C,R10*%
G36*
G01*
X143400000Y-95189999D02*
X143400000Y-96090001D01*
G75*
G02*
X143150001Y-96340000I-249999J0D01*
G01*
X142449999Y-96340000D01*
G75*
G02*
X142200000Y-96090001I0J249999D01*
G01*
X142200000Y-95189999D01*
G75*
G02*
X142449999Y-94940000I249999J0D01*
G01*
X143150001Y-94940000D01*
G75*
G02*
X143400000Y-95189999I0J-249999D01*
G01*
G37*
G36*
G01*
X145400000Y-95189999D02*
X145400000Y-96090001D01*
G75*
G02*
X145150001Y-96340000I-249999J0D01*
G01*
X144449999Y-96340000D01*
G75*
G02*
X144200000Y-96090001I0J249999D01*
G01*
X144200000Y-95189999D01*
G75*
G02*
X144449999Y-94940000I249999J0D01*
G01*
X145150001Y-94940000D01*
G75*
G02*
X145400000Y-95189999I0J-249999D01*
G01*
G37*
%TD*%
%TO.C,R9*%
G36*
G01*
X135400000Y-95189999D02*
X135400000Y-96090001D01*
G75*
G02*
X135150001Y-96340000I-249999J0D01*
G01*
X134449999Y-96340000D01*
G75*
G02*
X134200000Y-96090001I0J249999D01*
G01*
X134200000Y-95189999D01*
G75*
G02*
X134449999Y-94940000I249999J0D01*
G01*
X135150001Y-94940000D01*
G75*
G02*
X135400000Y-95189999I0J-249999D01*
G01*
G37*
G36*
G01*
X137400000Y-95189999D02*
X137400000Y-96090001D01*
G75*
G02*
X137150001Y-96340000I-249999J0D01*
G01*
X136449999Y-96340000D01*
G75*
G02*
X136200000Y-96090001I0J249999D01*
G01*
X136200000Y-95189999D01*
G75*
G02*
X136449999Y-94940000I249999J0D01*
G01*
X137150001Y-94940000D01*
G75*
G02*
X137400000Y-95189999I0J-249999D01*
G01*
G37*
%TD*%
%TO.C,R8*%
G36*
G01*
X127400000Y-95189999D02*
X127400000Y-96090001D01*
G75*
G02*
X127150001Y-96340000I-249999J0D01*
G01*
X126449999Y-96340000D01*
G75*
G02*
X126200000Y-96090001I0J249999D01*
G01*
X126200000Y-95189999D01*
G75*
G02*
X126449999Y-94940000I249999J0D01*
G01*
X127150001Y-94940000D01*
G75*
G02*
X127400000Y-95189999I0J-249999D01*
G01*
G37*
G36*
G01*
X129400000Y-95189999D02*
X129400000Y-96090001D01*
G75*
G02*
X129150001Y-96340000I-249999J0D01*
G01*
X128449999Y-96340000D01*
G75*
G02*
X128200000Y-96090001I0J249999D01*
G01*
X128200000Y-95189999D01*
G75*
G02*
X128449999Y-94940000I249999J0D01*
G01*
X129150001Y-94940000D01*
G75*
G02*
X129400000Y-95189999I0J-249999D01*
G01*
G37*
%TD*%
%TO.C,R7*%
G36*
G01*
X119400000Y-95189999D02*
X119400000Y-96090001D01*
G75*
G02*
X119150001Y-96340000I-249999J0D01*
G01*
X118449999Y-96340000D01*
G75*
G02*
X118200000Y-96090001I0J249999D01*
G01*
X118200000Y-95189999D01*
G75*
G02*
X118449999Y-94940000I249999J0D01*
G01*
X119150001Y-94940000D01*
G75*
G02*
X119400000Y-95189999I0J-249999D01*
G01*
G37*
G36*
G01*
X121400000Y-95189999D02*
X121400000Y-96090001D01*
G75*
G02*
X121150001Y-96340000I-249999J0D01*
G01*
X120449999Y-96340000D01*
G75*
G02*
X120200000Y-96090001I0J249999D01*
G01*
X120200000Y-95189999D01*
G75*
G02*
X120449999Y-94940000I249999J0D01*
G01*
X121150001Y-94940000D01*
G75*
G02*
X121400000Y-95189999I0J-249999D01*
G01*
G37*
%TD*%
%TO.C,R6*%
G36*
G01*
X132400000Y-59189999D02*
X132400000Y-60090001D01*
G75*
G02*
X132150001Y-60340000I-249999J0D01*
G01*
X131449999Y-60340000D01*
G75*
G02*
X131200000Y-60090001I0J249999D01*
G01*
X131200000Y-59189999D01*
G75*
G02*
X131449999Y-58940000I249999J0D01*
G01*
X132150001Y-58940000D01*
G75*
G02*
X132400000Y-59189999I0J-249999D01*
G01*
G37*
G36*
G01*
X134400000Y-59189999D02*
X134400000Y-60090001D01*
G75*
G02*
X134150001Y-60340000I-249999J0D01*
G01*
X133449999Y-60340000D01*
G75*
G02*
X133200000Y-60090001I0J249999D01*
G01*
X133200000Y-59189999D01*
G75*
G02*
X133449999Y-58940000I249999J0D01*
G01*
X134150001Y-58940000D01*
G75*
G02*
X134400000Y-59189999I0J-249999D01*
G01*
G37*
%TD*%
%TO.C,R5*%
G36*
G01*
X149900000Y-70189999D02*
X149900000Y-71090001D01*
G75*
G02*
X149650001Y-71340000I-249999J0D01*
G01*
X148949999Y-71340000D01*
G75*
G02*
X148700000Y-71090001I0J249999D01*
G01*
X148700000Y-70189999D01*
G75*
G02*
X148949999Y-69940000I249999J0D01*
G01*
X149650001Y-69940000D01*
G75*
G02*
X149900000Y-70189999I0J-249999D01*
G01*
G37*
G36*
G01*
X151900000Y-70189999D02*
X151900000Y-71090001D01*
G75*
G02*
X151650001Y-71340000I-249999J0D01*
G01*
X150949999Y-71340000D01*
G75*
G02*
X150700000Y-71090001I0J249999D01*
G01*
X150700000Y-70189999D01*
G75*
G02*
X150949999Y-69940000I249999J0D01*
G01*
X151650001Y-69940000D01*
G75*
G02*
X151900000Y-70189999I0J-249999D01*
G01*
G37*
%TD*%
%TO.C,R4*%
G36*
G01*
X150700000Y-76090001D02*
X150700000Y-75189999D01*
G75*
G02*
X150949999Y-74940000I249999J0D01*
G01*
X151650001Y-74940000D01*
G75*
G02*
X151900000Y-75189999I0J-249999D01*
G01*
X151900000Y-76090001D01*
G75*
G02*
X151650001Y-76340000I-249999J0D01*
G01*
X150949999Y-76340000D01*
G75*
G02*
X150700000Y-76090001I0J249999D01*
G01*
G37*
G36*
G01*
X148700000Y-76090001D02*
X148700000Y-75189999D01*
G75*
G02*
X148949999Y-74940000I249999J0D01*
G01*
X149650001Y-74940000D01*
G75*
G02*
X149900000Y-75189999I0J-249999D01*
G01*
X149900000Y-76090001D01*
G75*
G02*
X149650001Y-76340000I-249999J0D01*
G01*
X148949999Y-76340000D01*
G75*
G02*
X148700000Y-76090001I0J249999D01*
G01*
G37*
%TD*%
%TO.C,R3*%
G36*
G01*
X155700000Y-76090001D02*
X155700000Y-75189999D01*
G75*
G02*
X155949999Y-74940000I249999J0D01*
G01*
X156650001Y-74940000D01*
G75*
G02*
X156900000Y-75189999I0J-249999D01*
G01*
X156900000Y-76090001D01*
G75*
G02*
X156650001Y-76340000I-249999J0D01*
G01*
X155949999Y-76340000D01*
G75*
G02*
X155700000Y-76090001I0J249999D01*
G01*
G37*
G36*
G01*
X153700000Y-76090001D02*
X153700000Y-75189999D01*
G75*
G02*
X153949999Y-74940000I249999J0D01*
G01*
X154650001Y-74940000D01*
G75*
G02*
X154900000Y-75189999I0J-249999D01*
G01*
X154900000Y-76090001D01*
G75*
G02*
X154650001Y-76340000I-249999J0D01*
G01*
X153949999Y-76340000D01*
G75*
G02*
X153700000Y-76090001I0J249999D01*
G01*
G37*
%TD*%
%TO.C,R2*%
G36*
G01*
X133408000Y-70617999D02*
X133408000Y-71518001D01*
G75*
G02*
X133158001Y-71768000I-249999J0D01*
G01*
X132457999Y-71768000D01*
G75*
G02*
X132208000Y-71518001I0J249999D01*
G01*
X132208000Y-70617999D01*
G75*
G02*
X132457999Y-70368000I249999J0D01*
G01*
X133158001Y-70368000D01*
G75*
G02*
X133408000Y-70617999I0J-249999D01*
G01*
G37*
G36*
G01*
X135408000Y-70617999D02*
X135408000Y-71518001D01*
G75*
G02*
X135158001Y-71768000I-249999J0D01*
G01*
X134457999Y-71768000D01*
G75*
G02*
X134208000Y-71518001I0J249999D01*
G01*
X134208000Y-70617999D01*
G75*
G02*
X134457999Y-70368000I249999J0D01*
G01*
X135158001Y-70368000D01*
G75*
G02*
X135408000Y-70617999I0J-249999D01*
G01*
G37*
%TD*%
%TO.C,R1*%
G36*
G01*
X132258001Y-66668000D02*
X131357999Y-66668000D01*
G75*
G02*
X131108000Y-66418001I0J249999D01*
G01*
X131108000Y-65717999D01*
G75*
G02*
X131357999Y-65468000I249999J0D01*
G01*
X132258001Y-65468000D01*
G75*
G02*
X132508000Y-65717999I0J-249999D01*
G01*
X132508000Y-66418001D01*
G75*
G02*
X132258001Y-66668000I-249999J0D01*
G01*
G37*
G36*
G01*
X132258001Y-68668000D02*
X131357999Y-68668000D01*
G75*
G02*
X131108000Y-68418001I0J249999D01*
G01*
X131108000Y-67717999D01*
G75*
G02*
X131357999Y-67468000I249999J0D01*
G01*
X132258001Y-67468000D01*
G75*
G02*
X132508000Y-67717999I0J-249999D01*
G01*
X132508000Y-68418001D01*
G75*
G02*
X132258001Y-68668000I-249999J0D01*
G01*
G37*
%TD*%
D15*
%TO.C,Q1*%
X156000000Y-70790000D03*
X160600000Y-70790000D03*
X158300000Y-70790000D03*
D16*
X158300000Y-64490000D03*
%TD*%
D17*
%TO.C,LS1*%
X174300000Y-74140000D03*
D18*
X174300000Y-79140000D03*
%TD*%
D19*
%TO.C,J4*%
X160020000Y-101600000D03*
X157480000Y-101600000D03*
X154940000Y-101600000D03*
X152400000Y-101600000D03*
X149860000Y-101600000D03*
X147320000Y-101600000D03*
X144780000Y-101600000D03*
D20*
X142240000Y-101600000D03*
%TD*%
D19*
%TO.C,J3*%
X177800000Y-101600000D03*
X175260000Y-101600000D03*
X172720000Y-101600000D03*
X170180000Y-101600000D03*
X167640000Y-101600000D03*
D20*
X165100000Y-101600000D03*
%TD*%
D19*
%TO.C,J2*%
X160020000Y-53340000D03*
X162560000Y-53340000D03*
X165100000Y-53340000D03*
X167640000Y-53340000D03*
X170180000Y-53340000D03*
X172720000Y-53340000D03*
X175260000Y-53340000D03*
D20*
X177800000Y-53340000D03*
%TD*%
D19*
%TO.C,J1*%
X133096000Y-53340000D03*
X135636000Y-53340000D03*
X138176000Y-53340000D03*
X140716000Y-53340000D03*
X143256000Y-53340000D03*
X145796000Y-53340000D03*
X148336000Y-53340000D03*
X150876000Y-53340000D03*
X153416000Y-53340000D03*
D20*
X155956000Y-53340000D03*
%TD*%
%TO.C,D1*%
G36*
G01*
X128750000Y-60090001D02*
X128750000Y-59189999D01*
G75*
G02*
X128999999Y-58940000I249999J0D01*
G01*
X129650001Y-58940000D01*
G75*
G02*
X129900000Y-59189999I0J-249999D01*
G01*
X129900000Y-60090001D01*
G75*
G02*
X129650001Y-60340000I-249999J0D01*
G01*
X128999999Y-60340000D01*
G75*
G02*
X128750000Y-60090001I0J249999D01*
G01*
G37*
G36*
G01*
X126700000Y-60090001D02*
X126700000Y-59189999D01*
G75*
G02*
X126949999Y-58940000I249999J0D01*
G01*
X127600001Y-58940000D01*
G75*
G02*
X127850000Y-59189999I0J-249999D01*
G01*
X127850000Y-60090001D01*
G75*
G02*
X127600001Y-60340000I-249999J0D01*
G01*
X126949999Y-60340000D01*
G75*
G02*
X126700000Y-60090001I0J249999D01*
G01*
G37*
%TD*%
%TO.C,C5*%
G36*
G01*
X150780000Y-60976000D02*
X150780000Y-62976000D01*
G75*
G02*
X150530000Y-63226000I-250000J0D01*
G01*
X147030000Y-63226000D01*
G75*
G02*
X146780000Y-62976000I0J250000D01*
G01*
X146780000Y-60976000D01*
G75*
G02*
X147030000Y-60726000I250000J0D01*
G01*
X150530000Y-60726000D01*
G75*
G02*
X150780000Y-60976000I0J-250000D01*
G01*
G37*
G36*
G01*
X142780000Y-60976000D02*
X142780000Y-62976000D01*
G75*
G02*
X142530000Y-63226000I-250000J0D01*
G01*
X139030000Y-63226000D01*
G75*
G02*
X138780000Y-62976000I0J250000D01*
G01*
X138780000Y-60976000D01*
G75*
G02*
X139030000Y-60726000I250000J0D01*
G01*
X142530000Y-60726000D01*
G75*
G02*
X142780000Y-60976000I0J-250000D01*
G01*
G37*
%TD*%
%TO.C,C4*%
G36*
G01*
X150750000Y-73615000D02*
X150750000Y-72665000D01*
G75*
G02*
X151000000Y-72415000I250000J0D01*
G01*
X151675000Y-72415000D01*
G75*
G02*
X151925000Y-72665000I0J-250000D01*
G01*
X151925000Y-73615000D01*
G75*
G02*
X151675000Y-73865000I-250000J0D01*
G01*
X151000000Y-73865000D01*
G75*
G02*
X150750000Y-73615000I0J250000D01*
G01*
G37*
G36*
G01*
X148675000Y-73615000D02*
X148675000Y-72665000D01*
G75*
G02*
X148925000Y-72415000I250000J0D01*
G01*
X149600000Y-72415000D01*
G75*
G02*
X149850000Y-72665000I0J-250000D01*
G01*
X149850000Y-73615000D01*
G75*
G02*
X149600000Y-73865000I-250000J0D01*
G01*
X148925000Y-73865000D01*
G75*
G02*
X148675000Y-73615000I0J250000D01*
G01*
G37*
%TD*%
%TO.C,C3*%
G36*
G01*
X142044000Y-76487000D02*
X142044000Y-77437000D01*
G75*
G02*
X141794000Y-77687000I-250000J0D01*
G01*
X141119000Y-77687000D01*
G75*
G02*
X140869000Y-77437000I0J250000D01*
G01*
X140869000Y-76487000D01*
G75*
G02*
X141119000Y-76237000I250000J0D01*
G01*
X141794000Y-76237000D01*
G75*
G02*
X142044000Y-76487000I0J-250000D01*
G01*
G37*
G36*
G01*
X144119000Y-76487000D02*
X144119000Y-77437000D01*
G75*
G02*
X143869000Y-77687000I-250000J0D01*
G01*
X143194000Y-77687000D01*
G75*
G02*
X142944000Y-77437000I0J250000D01*
G01*
X142944000Y-76487000D01*
G75*
G02*
X143194000Y-76237000I250000J0D01*
G01*
X143869000Y-76237000D01*
G75*
G02*
X144119000Y-76487000I0J-250000D01*
G01*
G37*
%TD*%
%TO.C,C2*%
G36*
G01*
X135948000Y-67597000D02*
X135948000Y-68547000D01*
G75*
G02*
X135698000Y-68797000I-250000J0D01*
G01*
X135023000Y-68797000D01*
G75*
G02*
X134773000Y-68547000I0J250000D01*
G01*
X134773000Y-67597000D01*
G75*
G02*
X135023000Y-67347000I250000J0D01*
G01*
X135698000Y-67347000D01*
G75*
G02*
X135948000Y-67597000I0J-250000D01*
G01*
G37*
G36*
G01*
X138023000Y-67597000D02*
X138023000Y-68547000D01*
G75*
G02*
X137773000Y-68797000I-250000J0D01*
G01*
X137098000Y-68797000D01*
G75*
G02*
X136848000Y-68547000I0J250000D01*
G01*
X136848000Y-67597000D01*
G75*
G02*
X137098000Y-67347000I250000J0D01*
G01*
X137773000Y-67347000D01*
G75*
G02*
X138023000Y-67597000I0J-250000D01*
G01*
G37*
%TD*%
%TO.C,C1*%
G36*
G01*
X133408000Y-73693000D02*
X133408000Y-74643000D01*
G75*
G02*
X133158000Y-74893000I-250000J0D01*
G01*
X132483000Y-74893000D01*
G75*
G02*
X132233000Y-74643000I0J250000D01*
G01*
X132233000Y-73693000D01*
G75*
G02*
X132483000Y-73443000I250000J0D01*
G01*
X133158000Y-73443000D01*
G75*
G02*
X133408000Y-73693000I0J-250000D01*
G01*
G37*
G36*
G01*
X135483000Y-73693000D02*
X135483000Y-74643000D01*
G75*
G02*
X135233000Y-74893000I-250000J0D01*
G01*
X134558000Y-74893000D01*
G75*
G02*
X134308000Y-74643000I0J250000D01*
G01*
X134308000Y-73693000D01*
G75*
G02*
X134558000Y-73443000I250000J0D01*
G01*
X135233000Y-73443000D01*
G75*
G02*
X135483000Y-73693000I0J-250000D01*
G01*
G37*
%TD*%
M02*
