%TF.GenerationSoftware,KiCad,Pcbnew,(5.1.8)-1*%
%TF.CreationDate,2021-12-17T21:48:39+01:00*%
%TF.ProjectId,ArduinoAudioShield,41726475-696e-46f4-9175-64696f536869,rev?*%
%TF.SameCoordinates,Original*%
%TF.FileFunction,Legend,Top*%
%TF.FilePolarity,Positive*%
%FSLAX46Y46*%
G04 Gerber Fmt 4.6, Leading zero omitted, Abs format (unit mm)*
G04 Created by KiCad (PCBNEW (5.1.8)-1) date 2021-12-17 21:48:39*
%MOMM*%
%LPD*%
G01*
G04 APERTURE LIST*
%ADD10C,0.200000*%
%ADD11C,0.120000*%
%ADD12C,0.150000*%
G04 APERTURE END LIST*
D10*
X117047047Y-69420666D02*
X117523238Y-69420666D01*
X116951809Y-69706380D02*
X117285142Y-68706380D01*
X117618476Y-69706380D01*
X117951809Y-69706380D02*
X117951809Y-69039714D01*
X117951809Y-69230190D02*
X117999428Y-69134952D01*
X118047047Y-69087333D01*
X118142285Y-69039714D01*
X118237523Y-69039714D01*
X118999428Y-69706380D02*
X118999428Y-68706380D01*
X118999428Y-69658761D02*
X118904190Y-69706380D01*
X118713714Y-69706380D01*
X118618476Y-69658761D01*
X118570857Y-69611142D01*
X118523238Y-69515904D01*
X118523238Y-69230190D01*
X118570857Y-69134952D01*
X118618476Y-69087333D01*
X118713714Y-69039714D01*
X118904190Y-69039714D01*
X118999428Y-69087333D01*
X119904190Y-69039714D02*
X119904190Y-69706380D01*
X119475619Y-69039714D02*
X119475619Y-69563523D01*
X119523238Y-69658761D01*
X119618476Y-69706380D01*
X119761333Y-69706380D01*
X119856571Y-69658761D01*
X119904190Y-69611142D01*
X120380380Y-69706380D02*
X120380380Y-69039714D01*
X120380380Y-68706380D02*
X120332761Y-68754000D01*
X120380380Y-68801619D01*
X120428000Y-68754000D01*
X120380380Y-68706380D01*
X120380380Y-68801619D01*
X120856571Y-69039714D02*
X120856571Y-69706380D01*
X120856571Y-69134952D02*
X120904190Y-69087333D01*
X120999428Y-69039714D01*
X121142285Y-69039714D01*
X121237523Y-69087333D01*
X121285142Y-69182571D01*
X121285142Y-69706380D01*
X121904190Y-69706380D02*
X121808952Y-69658761D01*
X121761333Y-69611142D01*
X121713714Y-69515904D01*
X121713714Y-69230190D01*
X121761333Y-69134952D01*
X121808952Y-69087333D01*
X121904190Y-69039714D01*
X122047047Y-69039714D01*
X122142285Y-69087333D01*
X122189904Y-69134952D01*
X122237523Y-69230190D01*
X122237523Y-69515904D01*
X122189904Y-69611142D01*
X122142285Y-69658761D01*
X122047047Y-69706380D01*
X121904190Y-69706380D01*
X123380380Y-69420666D02*
X123856571Y-69420666D01*
X123285142Y-69706380D02*
X123618476Y-68706380D01*
X123951809Y-69706380D01*
X124713714Y-69039714D02*
X124713714Y-69706380D01*
X124285142Y-69039714D02*
X124285142Y-69563523D01*
X124332761Y-69658761D01*
X124428000Y-69706380D01*
X124570857Y-69706380D01*
X124666095Y-69658761D01*
X124713714Y-69611142D01*
X125618476Y-69706380D02*
X125618476Y-68706380D01*
X125618476Y-69658761D02*
X125523238Y-69706380D01*
X125332761Y-69706380D01*
X125237523Y-69658761D01*
X125189904Y-69611142D01*
X125142285Y-69515904D01*
X125142285Y-69230190D01*
X125189904Y-69134952D01*
X125237523Y-69087333D01*
X125332761Y-69039714D01*
X125523238Y-69039714D01*
X125618476Y-69087333D01*
X126094666Y-69706380D02*
X126094666Y-69039714D01*
X126094666Y-68706380D02*
X126047047Y-68754000D01*
X126094666Y-68801619D01*
X126142285Y-68754000D01*
X126094666Y-68706380D01*
X126094666Y-68801619D01*
X126713714Y-69706380D02*
X126618476Y-69658761D01*
X126570857Y-69611142D01*
X126523238Y-69515904D01*
X126523238Y-69230190D01*
X126570857Y-69134952D01*
X126618476Y-69087333D01*
X126713714Y-69039714D01*
X126856571Y-69039714D01*
X126951809Y-69087333D01*
X126999428Y-69134952D01*
X127047047Y-69230190D01*
X127047047Y-69515904D01*
X126999428Y-69611142D01*
X126951809Y-69658761D01*
X126856571Y-69706380D01*
X126713714Y-69706380D01*
X117737523Y-71358761D02*
X117880380Y-71406380D01*
X118118476Y-71406380D01*
X118213714Y-71358761D01*
X118261333Y-71311142D01*
X118308952Y-71215904D01*
X118308952Y-71120666D01*
X118261333Y-71025428D01*
X118213714Y-70977809D01*
X118118476Y-70930190D01*
X117928000Y-70882571D01*
X117832761Y-70834952D01*
X117785142Y-70787333D01*
X117737523Y-70692095D01*
X117737523Y-70596857D01*
X117785142Y-70501619D01*
X117832761Y-70454000D01*
X117928000Y-70406380D01*
X118166095Y-70406380D01*
X118308952Y-70454000D01*
X118737523Y-71406380D02*
X118737523Y-70406380D01*
X119166095Y-71406380D02*
X119166095Y-70882571D01*
X119118476Y-70787333D01*
X119023238Y-70739714D01*
X118880380Y-70739714D01*
X118785142Y-70787333D01*
X118737523Y-70834952D01*
X119642285Y-71406380D02*
X119642285Y-70739714D01*
X119642285Y-70406380D02*
X119594666Y-70454000D01*
X119642285Y-70501619D01*
X119689904Y-70454000D01*
X119642285Y-70406380D01*
X119642285Y-70501619D01*
X120499428Y-71358761D02*
X120404190Y-71406380D01*
X120213714Y-71406380D01*
X120118476Y-71358761D01*
X120070857Y-71263523D01*
X120070857Y-70882571D01*
X120118476Y-70787333D01*
X120213714Y-70739714D01*
X120404190Y-70739714D01*
X120499428Y-70787333D01*
X120547047Y-70882571D01*
X120547047Y-70977809D01*
X120070857Y-71073047D01*
X121118476Y-71406380D02*
X121023238Y-71358761D01*
X120975619Y-71263523D01*
X120975619Y-70406380D01*
X121928000Y-71406380D02*
X121928000Y-70406380D01*
X121928000Y-71358761D02*
X121832761Y-71406380D01*
X121642285Y-71406380D01*
X121547047Y-71358761D01*
X121499428Y-71311142D01*
X121451809Y-71215904D01*
X121451809Y-70930190D01*
X121499428Y-70834952D01*
X121547047Y-70787333D01*
X121642285Y-70739714D01*
X121832761Y-70739714D01*
X121928000Y-70787333D01*
X123070857Y-70739714D02*
X123308952Y-71406380D01*
X123547047Y-70739714D01*
X123928000Y-71311142D02*
X123975619Y-71358761D01*
X123928000Y-71406380D01*
X123880380Y-71358761D01*
X123928000Y-71311142D01*
X123928000Y-71406380D01*
X125689904Y-71406380D02*
X125118476Y-71406380D01*
X125404190Y-71406380D02*
X125404190Y-70406380D01*
X125308952Y-70549238D01*
X125213714Y-70644476D01*
X125118476Y-70692095D01*
X126118476Y-71311142D02*
X126166095Y-71358761D01*
X126118476Y-71406380D01*
X126070857Y-71358761D01*
X126118476Y-71311142D01*
X126118476Y-71406380D01*
X126785142Y-70406380D02*
X126880380Y-70406380D01*
X126975619Y-70454000D01*
X127023238Y-70501619D01*
X127070857Y-70596857D01*
X127118476Y-70787333D01*
X127118476Y-71025428D01*
X127070857Y-71215904D01*
X127023238Y-71311142D01*
X126975619Y-71358761D01*
X126880380Y-71406380D01*
X126785142Y-71406380D01*
X126689904Y-71358761D01*
X126642285Y-71311142D01*
X126594666Y-71215904D01*
X126547047Y-71025428D01*
X126547047Y-70787333D01*
X126594666Y-70596857D01*
X126642285Y-70501619D01*
X126689904Y-70454000D01*
X126785142Y-70406380D01*
D11*
%TO.C,J5*%
X166600000Y-57040000D02*
X169000000Y-57040000D01*
X165300000Y-63840000D02*
X165300000Y-58440000D01*
X174500000Y-65140000D02*
X166600000Y-65140000D01*
X177300000Y-57040000D02*
X177300000Y-65140000D01*
X177300000Y-57040000D02*
X175600000Y-57040000D01*
X170600000Y-57040000D02*
X173000000Y-57040000D01*
X176100000Y-65140000D02*
X177300000Y-65140000D01*
X179800000Y-57040000D02*
X177300000Y-57040000D01*
X179800000Y-65140000D02*
X179800000Y-57040000D01*
X177300000Y-65140000D02*
X179800000Y-65140000D01*
%TO.C,U1*%
X142494000Y-69830000D02*
X139044000Y-69830000D01*
X142494000Y-69830000D02*
X144444000Y-69830000D01*
X142494000Y-74950000D02*
X140544000Y-74950000D01*
X142494000Y-74950000D02*
X144444000Y-74950000D01*
%TO.C,SW8*%
X176300000Y-85390000D02*
X174800000Y-85390000D01*
X172300000Y-86640000D02*
X172300000Y-91140000D01*
X174800000Y-92390000D02*
X176300000Y-92390000D01*
X178800000Y-91140000D02*
X178800000Y-86640000D01*
%TO.C,SW7*%
X168300000Y-85390000D02*
X166800000Y-85390000D01*
X164300000Y-86640000D02*
X164300000Y-91140000D01*
X166800000Y-92390000D02*
X168300000Y-92390000D01*
X170800000Y-91140000D02*
X170800000Y-86640000D01*
%TO.C,SW6*%
X160300000Y-85390000D02*
X158800000Y-85390000D01*
X156300000Y-86640000D02*
X156300000Y-91140000D01*
X158800000Y-92390000D02*
X160300000Y-92390000D01*
X162800000Y-91140000D02*
X162800000Y-86640000D01*
%TO.C,SW5*%
X152300000Y-85390000D02*
X150800000Y-85390000D01*
X148300000Y-86640000D02*
X148300000Y-91140000D01*
X150800000Y-92390000D02*
X152300000Y-92390000D01*
X154800000Y-91140000D02*
X154800000Y-86640000D01*
%TO.C,SW4*%
X144300000Y-85390000D02*
X142800000Y-85390000D01*
X140300000Y-86640000D02*
X140300000Y-91140000D01*
X142800000Y-92390000D02*
X144300000Y-92390000D01*
X146800000Y-91140000D02*
X146800000Y-86640000D01*
%TO.C,SW3*%
X136300000Y-85390000D02*
X134800000Y-85390000D01*
X132300000Y-86640000D02*
X132300000Y-91140000D01*
X134800000Y-92390000D02*
X136300000Y-92390000D01*
X138800000Y-91140000D02*
X138800000Y-86640000D01*
%TO.C,SW2*%
X128300000Y-85390000D02*
X126800000Y-85390000D01*
X124300000Y-86640000D02*
X124300000Y-91140000D01*
X126800000Y-92390000D02*
X128300000Y-92390000D01*
X130800000Y-91140000D02*
X130800000Y-86640000D01*
%TO.C,SW1*%
X120300000Y-85390000D02*
X118800000Y-85390000D01*
X116300000Y-86640000D02*
X116300000Y-91140000D01*
X118800000Y-92390000D02*
X120300000Y-92390000D01*
X122800000Y-91140000D02*
X122800000Y-86640000D01*
%TO.C,R14*%
X176027064Y-94905000D02*
X175572936Y-94905000D01*
X176027064Y-96375000D02*
X175572936Y-96375000D01*
%TO.C,R13*%
X168027064Y-94905000D02*
X167572936Y-94905000D01*
X168027064Y-96375000D02*
X167572936Y-96375000D01*
%TO.C,R12*%
X160027064Y-94905000D02*
X159572936Y-94905000D01*
X160027064Y-96375000D02*
X159572936Y-96375000D01*
%TO.C,R11*%
X152027064Y-94905000D02*
X151572936Y-94905000D01*
X152027064Y-96375000D02*
X151572936Y-96375000D01*
%TO.C,R10*%
X144027064Y-94905000D02*
X143572936Y-94905000D01*
X144027064Y-96375000D02*
X143572936Y-96375000D01*
%TO.C,R9*%
X136027064Y-94905000D02*
X135572936Y-94905000D01*
X136027064Y-96375000D02*
X135572936Y-96375000D01*
%TO.C,R8*%
X128027064Y-94905000D02*
X127572936Y-94905000D01*
X128027064Y-96375000D02*
X127572936Y-96375000D01*
%TO.C,R7*%
X120027064Y-94905000D02*
X119572936Y-94905000D01*
X120027064Y-96375000D02*
X119572936Y-96375000D01*
%TO.C,R6*%
X133027064Y-58905000D02*
X132572936Y-58905000D01*
X133027064Y-60375000D02*
X132572936Y-60375000D01*
%TO.C,R5*%
X150527064Y-69905000D02*
X150072936Y-69905000D01*
X150527064Y-71375000D02*
X150072936Y-71375000D01*
%TO.C,R4*%
X150072936Y-76375000D02*
X150527064Y-76375000D01*
X150072936Y-74905000D02*
X150527064Y-74905000D01*
%TO.C,R3*%
X155072936Y-76375000D02*
X155527064Y-76375000D01*
X155072936Y-74905000D02*
X155527064Y-74905000D01*
%TO.C,R2*%
X134035064Y-70333000D02*
X133580936Y-70333000D01*
X134035064Y-71803000D02*
X133580936Y-71803000D01*
%TO.C,R1*%
X132543000Y-67295064D02*
X132543000Y-66840936D01*
X131073000Y-67295064D02*
X131073000Y-66840936D01*
%TO.C,Q1*%
X154890000Y-71740000D02*
X154890000Y-65730000D01*
X161710000Y-69490000D02*
X161710000Y-65730000D01*
X154890000Y-65730000D02*
X156150000Y-65730000D01*
X161710000Y-65730000D02*
X160450000Y-65730000D01*
%TO.C,LS1*%
X168000000Y-70940000D02*
X168000000Y-81790000D01*
X173100000Y-70940000D02*
X168000000Y-70940000D01*
X172800000Y-71440000D02*
X173100000Y-70940000D01*
X178200000Y-71440000D02*
X172800000Y-71440000D01*
X177950000Y-70940000D02*
X178200000Y-71440000D01*
X178000000Y-70940000D02*
X177950000Y-70940000D01*
X179900000Y-70940000D02*
X178000000Y-70940000D01*
X179650000Y-71440000D02*
X179900000Y-70940000D01*
X180600000Y-71440000D02*
X179650000Y-71440000D01*
X180600000Y-81790000D02*
X180600000Y-71440000D01*
X168000000Y-81790000D02*
X180600000Y-81790000D01*
%TO.C,J4*%
X140910000Y-102930000D02*
X140910000Y-101600000D01*
X142240000Y-102930000D02*
X140910000Y-102930000D01*
X143510000Y-102930000D02*
X143510000Y-100270000D01*
X143510000Y-100270000D02*
X161350000Y-100270000D01*
X143510000Y-102930000D02*
X161350000Y-102930000D01*
X161350000Y-102930000D02*
X161350000Y-100270000D01*
%TO.C,J3*%
X163770000Y-102930000D02*
X163770000Y-101600000D01*
X165100000Y-102930000D02*
X163770000Y-102930000D01*
X166370000Y-102930000D02*
X166370000Y-100270000D01*
X166370000Y-100270000D02*
X179130000Y-100270000D01*
X166370000Y-102930000D02*
X179130000Y-102930000D01*
X179130000Y-102930000D02*
X179130000Y-100270000D01*
%TO.C,J2*%
X179130000Y-52010000D02*
X179130000Y-53340000D01*
X177800000Y-52010000D02*
X179130000Y-52010000D01*
X176530000Y-52010000D02*
X176530000Y-54670000D01*
X176530000Y-54670000D02*
X158690000Y-54670000D01*
X176530000Y-52010000D02*
X158690000Y-52010000D01*
X158690000Y-52010000D02*
X158690000Y-54670000D01*
%TO.C,J1*%
X157286000Y-52010000D02*
X157286000Y-53340000D01*
X155956000Y-52010000D02*
X157286000Y-52010000D01*
X154686000Y-52010000D02*
X154686000Y-54670000D01*
X154686000Y-54670000D02*
X131766000Y-54670000D01*
X154686000Y-52010000D02*
X131766000Y-52010000D01*
X131766000Y-52010000D02*
X131766000Y-54670000D01*
%TO.C,D1*%
X126440000Y-60600000D02*
X129300000Y-60600000D01*
X126440000Y-58680000D02*
X126440000Y-60600000D01*
X129300000Y-58680000D02*
X126440000Y-58680000D01*
%TO.C,C5*%
X139520000Y-56716000D02*
X139520000Y-60466000D01*
X139520000Y-67236000D02*
X139520000Y-63486000D01*
X148975563Y-67236000D02*
X139520000Y-67236000D01*
X148975563Y-56716000D02*
X139520000Y-56716000D01*
X150040000Y-57780437D02*
X150040000Y-60466000D01*
X150040000Y-66171563D02*
X150040000Y-63486000D01*
X150040000Y-66171563D02*
X148975563Y-67236000D01*
X150040000Y-57780437D02*
X148975563Y-56716000D01*
X151530000Y-64736000D02*
X150280000Y-64736000D01*
X150905000Y-65361000D02*
X150905000Y-64111000D01*
%TO.C,C4*%
X150038748Y-73875000D02*
X150561252Y-73875000D01*
X150038748Y-72405000D02*
X150561252Y-72405000D01*
%TO.C,C3*%
X142755252Y-76227000D02*
X142232748Y-76227000D01*
X142755252Y-77697000D02*
X142232748Y-77697000D01*
%TO.C,C2*%
X136659252Y-67337000D02*
X136136748Y-67337000D01*
X136659252Y-68807000D02*
X136136748Y-68807000D01*
%TO.C,C1*%
X134119252Y-73433000D02*
X133596748Y-73433000D01*
X134119252Y-74903000D02*
X133596748Y-74903000D01*
%TO.C,J5*%
D12*
X162352380Y-61473333D02*
X163066666Y-61473333D01*
X163209523Y-61520952D01*
X163304761Y-61616190D01*
X163352380Y-61759047D01*
X163352380Y-61854285D01*
X162352380Y-60520952D02*
X162352380Y-60997142D01*
X162828571Y-61044761D01*
X162780952Y-60997142D01*
X162733333Y-60901904D01*
X162733333Y-60663809D01*
X162780952Y-60568571D01*
X162828571Y-60520952D01*
X162923809Y-60473333D01*
X163161904Y-60473333D01*
X163257142Y-60520952D01*
X163304761Y-60568571D01*
X163352380Y-60663809D01*
X163352380Y-60901904D01*
X163304761Y-60997142D01*
X163257142Y-61044761D01*
%TO.C,U1*%
X141732095Y-68442380D02*
X141732095Y-69251904D01*
X141779714Y-69347142D01*
X141827333Y-69394761D01*
X141922571Y-69442380D01*
X142113047Y-69442380D01*
X142208285Y-69394761D01*
X142255904Y-69347142D01*
X142303523Y-69251904D01*
X142303523Y-68442380D01*
X143303523Y-69442380D02*
X142732095Y-69442380D01*
X143017809Y-69442380D02*
X143017809Y-68442380D01*
X142922571Y-68585238D01*
X142827333Y-68680476D01*
X142732095Y-68728095D01*
%TO.C,SW8*%
X174466666Y-83544761D02*
X174609523Y-83592380D01*
X174847619Y-83592380D01*
X174942857Y-83544761D01*
X174990476Y-83497142D01*
X175038095Y-83401904D01*
X175038095Y-83306666D01*
X174990476Y-83211428D01*
X174942857Y-83163809D01*
X174847619Y-83116190D01*
X174657142Y-83068571D01*
X174561904Y-83020952D01*
X174514285Y-82973333D01*
X174466666Y-82878095D01*
X174466666Y-82782857D01*
X174514285Y-82687619D01*
X174561904Y-82640000D01*
X174657142Y-82592380D01*
X174895238Y-82592380D01*
X175038095Y-82640000D01*
X175371428Y-82592380D02*
X175609523Y-83592380D01*
X175800000Y-82878095D01*
X175990476Y-83592380D01*
X176228571Y-82592380D01*
X176752380Y-83020952D02*
X176657142Y-82973333D01*
X176609523Y-82925714D01*
X176561904Y-82830476D01*
X176561904Y-82782857D01*
X176609523Y-82687619D01*
X176657142Y-82640000D01*
X176752380Y-82592380D01*
X176942857Y-82592380D01*
X177038095Y-82640000D01*
X177085714Y-82687619D01*
X177133333Y-82782857D01*
X177133333Y-82830476D01*
X177085714Y-82925714D01*
X177038095Y-82973333D01*
X176942857Y-83020952D01*
X176752380Y-83020952D01*
X176657142Y-83068571D01*
X176609523Y-83116190D01*
X176561904Y-83211428D01*
X176561904Y-83401904D01*
X176609523Y-83497142D01*
X176657142Y-83544761D01*
X176752380Y-83592380D01*
X176942857Y-83592380D01*
X177038095Y-83544761D01*
X177085714Y-83497142D01*
X177133333Y-83401904D01*
X177133333Y-83211428D01*
X177085714Y-83116190D01*
X177038095Y-83068571D01*
X176942857Y-83020952D01*
%TO.C,SW7*%
X166466666Y-83544761D02*
X166609523Y-83592380D01*
X166847619Y-83592380D01*
X166942857Y-83544761D01*
X166990476Y-83497142D01*
X167038095Y-83401904D01*
X167038095Y-83306666D01*
X166990476Y-83211428D01*
X166942857Y-83163809D01*
X166847619Y-83116190D01*
X166657142Y-83068571D01*
X166561904Y-83020952D01*
X166514285Y-82973333D01*
X166466666Y-82878095D01*
X166466666Y-82782857D01*
X166514285Y-82687619D01*
X166561904Y-82640000D01*
X166657142Y-82592380D01*
X166895238Y-82592380D01*
X167038095Y-82640000D01*
X167371428Y-82592380D02*
X167609523Y-83592380D01*
X167800000Y-82878095D01*
X167990476Y-83592380D01*
X168228571Y-82592380D01*
X168514285Y-82592380D02*
X169180952Y-82592380D01*
X168752380Y-83592380D01*
%TO.C,SW6*%
X158466666Y-83544761D02*
X158609523Y-83592380D01*
X158847619Y-83592380D01*
X158942857Y-83544761D01*
X158990476Y-83497142D01*
X159038095Y-83401904D01*
X159038095Y-83306666D01*
X158990476Y-83211428D01*
X158942857Y-83163809D01*
X158847619Y-83116190D01*
X158657142Y-83068571D01*
X158561904Y-83020952D01*
X158514285Y-82973333D01*
X158466666Y-82878095D01*
X158466666Y-82782857D01*
X158514285Y-82687619D01*
X158561904Y-82640000D01*
X158657142Y-82592380D01*
X158895238Y-82592380D01*
X159038095Y-82640000D01*
X159371428Y-82592380D02*
X159609523Y-83592380D01*
X159800000Y-82878095D01*
X159990476Y-83592380D01*
X160228571Y-82592380D01*
X161038095Y-82592380D02*
X160847619Y-82592380D01*
X160752380Y-82640000D01*
X160704761Y-82687619D01*
X160609523Y-82830476D01*
X160561904Y-83020952D01*
X160561904Y-83401904D01*
X160609523Y-83497142D01*
X160657142Y-83544761D01*
X160752380Y-83592380D01*
X160942857Y-83592380D01*
X161038095Y-83544761D01*
X161085714Y-83497142D01*
X161133333Y-83401904D01*
X161133333Y-83163809D01*
X161085714Y-83068571D01*
X161038095Y-83020952D01*
X160942857Y-82973333D01*
X160752380Y-82973333D01*
X160657142Y-83020952D01*
X160609523Y-83068571D01*
X160561904Y-83163809D01*
%TO.C,SW5*%
X150466666Y-83544761D02*
X150609523Y-83592380D01*
X150847619Y-83592380D01*
X150942857Y-83544761D01*
X150990476Y-83497142D01*
X151038095Y-83401904D01*
X151038095Y-83306666D01*
X150990476Y-83211428D01*
X150942857Y-83163809D01*
X150847619Y-83116190D01*
X150657142Y-83068571D01*
X150561904Y-83020952D01*
X150514285Y-82973333D01*
X150466666Y-82878095D01*
X150466666Y-82782857D01*
X150514285Y-82687619D01*
X150561904Y-82640000D01*
X150657142Y-82592380D01*
X150895238Y-82592380D01*
X151038095Y-82640000D01*
X151371428Y-82592380D02*
X151609523Y-83592380D01*
X151800000Y-82878095D01*
X151990476Y-83592380D01*
X152228571Y-82592380D01*
X153085714Y-82592380D02*
X152609523Y-82592380D01*
X152561904Y-83068571D01*
X152609523Y-83020952D01*
X152704761Y-82973333D01*
X152942857Y-82973333D01*
X153038095Y-83020952D01*
X153085714Y-83068571D01*
X153133333Y-83163809D01*
X153133333Y-83401904D01*
X153085714Y-83497142D01*
X153038095Y-83544761D01*
X152942857Y-83592380D01*
X152704761Y-83592380D01*
X152609523Y-83544761D01*
X152561904Y-83497142D01*
%TO.C,SW4*%
X142466666Y-83544761D02*
X142609523Y-83592380D01*
X142847619Y-83592380D01*
X142942857Y-83544761D01*
X142990476Y-83497142D01*
X143038095Y-83401904D01*
X143038095Y-83306666D01*
X142990476Y-83211428D01*
X142942857Y-83163809D01*
X142847619Y-83116190D01*
X142657142Y-83068571D01*
X142561904Y-83020952D01*
X142514285Y-82973333D01*
X142466666Y-82878095D01*
X142466666Y-82782857D01*
X142514285Y-82687619D01*
X142561904Y-82640000D01*
X142657142Y-82592380D01*
X142895238Y-82592380D01*
X143038095Y-82640000D01*
X143371428Y-82592380D02*
X143609523Y-83592380D01*
X143800000Y-82878095D01*
X143990476Y-83592380D01*
X144228571Y-82592380D01*
X145038095Y-82925714D02*
X145038095Y-83592380D01*
X144800000Y-82544761D02*
X144561904Y-83259047D01*
X145180952Y-83259047D01*
%TO.C,SW3*%
X134466666Y-83544761D02*
X134609523Y-83592380D01*
X134847619Y-83592380D01*
X134942857Y-83544761D01*
X134990476Y-83497142D01*
X135038095Y-83401904D01*
X135038095Y-83306666D01*
X134990476Y-83211428D01*
X134942857Y-83163809D01*
X134847619Y-83116190D01*
X134657142Y-83068571D01*
X134561904Y-83020952D01*
X134514285Y-82973333D01*
X134466666Y-82878095D01*
X134466666Y-82782857D01*
X134514285Y-82687619D01*
X134561904Y-82640000D01*
X134657142Y-82592380D01*
X134895238Y-82592380D01*
X135038095Y-82640000D01*
X135371428Y-82592380D02*
X135609523Y-83592380D01*
X135800000Y-82878095D01*
X135990476Y-83592380D01*
X136228571Y-82592380D01*
X136514285Y-82592380D02*
X137133333Y-82592380D01*
X136800000Y-82973333D01*
X136942857Y-82973333D01*
X137038095Y-83020952D01*
X137085714Y-83068571D01*
X137133333Y-83163809D01*
X137133333Y-83401904D01*
X137085714Y-83497142D01*
X137038095Y-83544761D01*
X136942857Y-83592380D01*
X136657142Y-83592380D01*
X136561904Y-83544761D01*
X136514285Y-83497142D01*
%TO.C,SW2*%
X126466666Y-83544761D02*
X126609523Y-83592380D01*
X126847619Y-83592380D01*
X126942857Y-83544761D01*
X126990476Y-83497142D01*
X127038095Y-83401904D01*
X127038095Y-83306666D01*
X126990476Y-83211428D01*
X126942857Y-83163809D01*
X126847619Y-83116190D01*
X126657142Y-83068571D01*
X126561904Y-83020952D01*
X126514285Y-82973333D01*
X126466666Y-82878095D01*
X126466666Y-82782857D01*
X126514285Y-82687619D01*
X126561904Y-82640000D01*
X126657142Y-82592380D01*
X126895238Y-82592380D01*
X127038095Y-82640000D01*
X127371428Y-82592380D02*
X127609523Y-83592380D01*
X127800000Y-82878095D01*
X127990476Y-83592380D01*
X128228571Y-82592380D01*
X128561904Y-82687619D02*
X128609523Y-82640000D01*
X128704761Y-82592380D01*
X128942857Y-82592380D01*
X129038095Y-82640000D01*
X129085714Y-82687619D01*
X129133333Y-82782857D01*
X129133333Y-82878095D01*
X129085714Y-83020952D01*
X128514285Y-83592380D01*
X129133333Y-83592380D01*
%TO.C,SW1*%
X118466666Y-83544761D02*
X118609523Y-83592380D01*
X118847619Y-83592380D01*
X118942857Y-83544761D01*
X118990476Y-83497142D01*
X119038095Y-83401904D01*
X119038095Y-83306666D01*
X118990476Y-83211428D01*
X118942857Y-83163809D01*
X118847619Y-83116190D01*
X118657142Y-83068571D01*
X118561904Y-83020952D01*
X118514285Y-82973333D01*
X118466666Y-82878095D01*
X118466666Y-82782857D01*
X118514285Y-82687619D01*
X118561904Y-82640000D01*
X118657142Y-82592380D01*
X118895238Y-82592380D01*
X119038095Y-82640000D01*
X119371428Y-82592380D02*
X119609523Y-83592380D01*
X119800000Y-82878095D01*
X119990476Y-83592380D01*
X120228571Y-82592380D01*
X121133333Y-83592380D02*
X120561904Y-83592380D01*
X120847619Y-83592380D02*
X120847619Y-82592380D01*
X120752380Y-82735238D01*
X120657142Y-82830476D01*
X120561904Y-82878095D01*
%TO.C,R14*%
X175157142Y-97742380D02*
X174823809Y-97266190D01*
X174585714Y-97742380D02*
X174585714Y-96742380D01*
X174966666Y-96742380D01*
X175061904Y-96790000D01*
X175109523Y-96837619D01*
X175157142Y-96932857D01*
X175157142Y-97075714D01*
X175109523Y-97170952D01*
X175061904Y-97218571D01*
X174966666Y-97266190D01*
X174585714Y-97266190D01*
X176109523Y-97742380D02*
X175538095Y-97742380D01*
X175823809Y-97742380D02*
X175823809Y-96742380D01*
X175728571Y-96885238D01*
X175633333Y-96980476D01*
X175538095Y-97028095D01*
X176966666Y-97075714D02*
X176966666Y-97742380D01*
X176728571Y-96694761D02*
X176490476Y-97409047D01*
X177109523Y-97409047D01*
%TO.C,R13*%
X167157142Y-97742380D02*
X166823809Y-97266190D01*
X166585714Y-97742380D02*
X166585714Y-96742380D01*
X166966666Y-96742380D01*
X167061904Y-96790000D01*
X167109523Y-96837619D01*
X167157142Y-96932857D01*
X167157142Y-97075714D01*
X167109523Y-97170952D01*
X167061904Y-97218571D01*
X166966666Y-97266190D01*
X166585714Y-97266190D01*
X168109523Y-97742380D02*
X167538095Y-97742380D01*
X167823809Y-97742380D02*
X167823809Y-96742380D01*
X167728571Y-96885238D01*
X167633333Y-96980476D01*
X167538095Y-97028095D01*
X168442857Y-96742380D02*
X169061904Y-96742380D01*
X168728571Y-97123333D01*
X168871428Y-97123333D01*
X168966666Y-97170952D01*
X169014285Y-97218571D01*
X169061904Y-97313809D01*
X169061904Y-97551904D01*
X169014285Y-97647142D01*
X168966666Y-97694761D01*
X168871428Y-97742380D01*
X168585714Y-97742380D01*
X168490476Y-97694761D01*
X168442857Y-97647142D01*
%TO.C,R12*%
X159157142Y-97742380D02*
X158823809Y-97266190D01*
X158585714Y-97742380D02*
X158585714Y-96742380D01*
X158966666Y-96742380D01*
X159061904Y-96790000D01*
X159109523Y-96837619D01*
X159157142Y-96932857D01*
X159157142Y-97075714D01*
X159109523Y-97170952D01*
X159061904Y-97218571D01*
X158966666Y-97266190D01*
X158585714Y-97266190D01*
X160109523Y-97742380D02*
X159538095Y-97742380D01*
X159823809Y-97742380D02*
X159823809Y-96742380D01*
X159728571Y-96885238D01*
X159633333Y-96980476D01*
X159538095Y-97028095D01*
X160490476Y-96837619D02*
X160538095Y-96790000D01*
X160633333Y-96742380D01*
X160871428Y-96742380D01*
X160966666Y-96790000D01*
X161014285Y-96837619D01*
X161061904Y-96932857D01*
X161061904Y-97028095D01*
X161014285Y-97170952D01*
X160442857Y-97742380D01*
X161061904Y-97742380D01*
%TO.C,R11*%
X151157142Y-97742380D02*
X150823809Y-97266190D01*
X150585714Y-97742380D02*
X150585714Y-96742380D01*
X150966666Y-96742380D01*
X151061904Y-96790000D01*
X151109523Y-96837619D01*
X151157142Y-96932857D01*
X151157142Y-97075714D01*
X151109523Y-97170952D01*
X151061904Y-97218571D01*
X150966666Y-97266190D01*
X150585714Y-97266190D01*
X152109523Y-97742380D02*
X151538095Y-97742380D01*
X151823809Y-97742380D02*
X151823809Y-96742380D01*
X151728571Y-96885238D01*
X151633333Y-96980476D01*
X151538095Y-97028095D01*
X153061904Y-97742380D02*
X152490476Y-97742380D01*
X152776190Y-97742380D02*
X152776190Y-96742380D01*
X152680952Y-96885238D01*
X152585714Y-96980476D01*
X152490476Y-97028095D01*
%TO.C,R10*%
X143157142Y-97742380D02*
X142823809Y-97266190D01*
X142585714Y-97742380D02*
X142585714Y-96742380D01*
X142966666Y-96742380D01*
X143061904Y-96790000D01*
X143109523Y-96837619D01*
X143157142Y-96932857D01*
X143157142Y-97075714D01*
X143109523Y-97170952D01*
X143061904Y-97218571D01*
X142966666Y-97266190D01*
X142585714Y-97266190D01*
X144109523Y-97742380D02*
X143538095Y-97742380D01*
X143823809Y-97742380D02*
X143823809Y-96742380D01*
X143728571Y-96885238D01*
X143633333Y-96980476D01*
X143538095Y-97028095D01*
X144728571Y-96742380D02*
X144823809Y-96742380D01*
X144919047Y-96790000D01*
X144966666Y-96837619D01*
X145014285Y-96932857D01*
X145061904Y-97123333D01*
X145061904Y-97361428D01*
X145014285Y-97551904D01*
X144966666Y-97647142D01*
X144919047Y-97694761D01*
X144823809Y-97742380D01*
X144728571Y-97742380D01*
X144633333Y-97694761D01*
X144585714Y-97647142D01*
X144538095Y-97551904D01*
X144490476Y-97361428D01*
X144490476Y-97123333D01*
X144538095Y-96932857D01*
X144585714Y-96837619D01*
X144633333Y-96790000D01*
X144728571Y-96742380D01*
%TO.C,R9*%
X135633333Y-97742380D02*
X135300000Y-97266190D01*
X135061904Y-97742380D02*
X135061904Y-96742380D01*
X135442857Y-96742380D01*
X135538095Y-96790000D01*
X135585714Y-96837619D01*
X135633333Y-96932857D01*
X135633333Y-97075714D01*
X135585714Y-97170952D01*
X135538095Y-97218571D01*
X135442857Y-97266190D01*
X135061904Y-97266190D01*
X136109523Y-97742380D02*
X136300000Y-97742380D01*
X136395238Y-97694761D01*
X136442857Y-97647142D01*
X136538095Y-97504285D01*
X136585714Y-97313809D01*
X136585714Y-96932857D01*
X136538095Y-96837619D01*
X136490476Y-96790000D01*
X136395238Y-96742380D01*
X136204761Y-96742380D01*
X136109523Y-96790000D01*
X136061904Y-96837619D01*
X136014285Y-96932857D01*
X136014285Y-97170952D01*
X136061904Y-97266190D01*
X136109523Y-97313809D01*
X136204761Y-97361428D01*
X136395238Y-97361428D01*
X136490476Y-97313809D01*
X136538095Y-97266190D01*
X136585714Y-97170952D01*
%TO.C,R8*%
X127633333Y-97742380D02*
X127300000Y-97266190D01*
X127061904Y-97742380D02*
X127061904Y-96742380D01*
X127442857Y-96742380D01*
X127538095Y-96790000D01*
X127585714Y-96837619D01*
X127633333Y-96932857D01*
X127633333Y-97075714D01*
X127585714Y-97170952D01*
X127538095Y-97218571D01*
X127442857Y-97266190D01*
X127061904Y-97266190D01*
X128204761Y-97170952D02*
X128109523Y-97123333D01*
X128061904Y-97075714D01*
X128014285Y-96980476D01*
X128014285Y-96932857D01*
X128061904Y-96837619D01*
X128109523Y-96790000D01*
X128204761Y-96742380D01*
X128395238Y-96742380D01*
X128490476Y-96790000D01*
X128538095Y-96837619D01*
X128585714Y-96932857D01*
X128585714Y-96980476D01*
X128538095Y-97075714D01*
X128490476Y-97123333D01*
X128395238Y-97170952D01*
X128204761Y-97170952D01*
X128109523Y-97218571D01*
X128061904Y-97266190D01*
X128014285Y-97361428D01*
X128014285Y-97551904D01*
X128061904Y-97647142D01*
X128109523Y-97694761D01*
X128204761Y-97742380D01*
X128395238Y-97742380D01*
X128490476Y-97694761D01*
X128538095Y-97647142D01*
X128585714Y-97551904D01*
X128585714Y-97361428D01*
X128538095Y-97266190D01*
X128490476Y-97218571D01*
X128395238Y-97170952D01*
%TO.C,R7*%
X119633333Y-97742380D02*
X119300000Y-97266190D01*
X119061904Y-97742380D02*
X119061904Y-96742380D01*
X119442857Y-96742380D01*
X119538095Y-96790000D01*
X119585714Y-96837619D01*
X119633333Y-96932857D01*
X119633333Y-97075714D01*
X119585714Y-97170952D01*
X119538095Y-97218571D01*
X119442857Y-97266190D01*
X119061904Y-97266190D01*
X119966666Y-96742380D02*
X120633333Y-96742380D01*
X120204761Y-97742380D01*
%TO.C,R6*%
X132633333Y-61742380D02*
X132300000Y-61266190D01*
X132061904Y-61742380D02*
X132061904Y-60742380D01*
X132442857Y-60742380D01*
X132538095Y-60790000D01*
X132585714Y-60837619D01*
X132633333Y-60932857D01*
X132633333Y-61075714D01*
X132585714Y-61170952D01*
X132538095Y-61218571D01*
X132442857Y-61266190D01*
X132061904Y-61266190D01*
X133490476Y-60742380D02*
X133300000Y-60742380D01*
X133204761Y-60790000D01*
X133157142Y-60837619D01*
X133061904Y-60980476D01*
X133014285Y-61170952D01*
X133014285Y-61551904D01*
X133061904Y-61647142D01*
X133109523Y-61694761D01*
X133204761Y-61742380D01*
X133395238Y-61742380D01*
X133490476Y-61694761D01*
X133538095Y-61647142D01*
X133585714Y-61551904D01*
X133585714Y-61313809D01*
X133538095Y-61218571D01*
X133490476Y-61170952D01*
X133395238Y-61123333D01*
X133204761Y-61123333D01*
X133109523Y-61170952D01*
X133061904Y-61218571D01*
X133014285Y-61313809D01*
%TO.C,R5*%
X151471333Y-69540380D02*
X151138000Y-69064190D01*
X150899904Y-69540380D02*
X150899904Y-68540380D01*
X151280857Y-68540380D01*
X151376095Y-68588000D01*
X151423714Y-68635619D01*
X151471333Y-68730857D01*
X151471333Y-68873714D01*
X151423714Y-68968952D01*
X151376095Y-69016571D01*
X151280857Y-69064190D01*
X150899904Y-69064190D01*
X152376095Y-68540380D02*
X151899904Y-68540380D01*
X151852285Y-69016571D01*
X151899904Y-68968952D01*
X151995142Y-68921333D01*
X152233238Y-68921333D01*
X152328476Y-68968952D01*
X152376095Y-69016571D01*
X152423714Y-69111809D01*
X152423714Y-69349904D01*
X152376095Y-69445142D01*
X152328476Y-69492761D01*
X152233238Y-69540380D01*
X151995142Y-69540380D01*
X151899904Y-69492761D01*
X151852285Y-69445142D01*
%TO.C,R4*%
X150201333Y-77795380D02*
X149868000Y-77319190D01*
X149629904Y-77795380D02*
X149629904Y-76795380D01*
X150010857Y-76795380D01*
X150106095Y-76843000D01*
X150153714Y-76890619D01*
X150201333Y-76985857D01*
X150201333Y-77128714D01*
X150153714Y-77223952D01*
X150106095Y-77271571D01*
X150010857Y-77319190D01*
X149629904Y-77319190D01*
X151058476Y-77128714D02*
X151058476Y-77795380D01*
X150820380Y-76747761D02*
X150582285Y-77462047D01*
X151201333Y-77462047D01*
%TO.C,R3*%
X158133333Y-76092380D02*
X157800000Y-75616190D01*
X157561904Y-76092380D02*
X157561904Y-75092380D01*
X157942857Y-75092380D01*
X158038095Y-75140000D01*
X158085714Y-75187619D01*
X158133333Y-75282857D01*
X158133333Y-75425714D01*
X158085714Y-75520952D01*
X158038095Y-75568571D01*
X157942857Y-75616190D01*
X157561904Y-75616190D01*
X158466666Y-75092380D02*
X159085714Y-75092380D01*
X158752380Y-75473333D01*
X158895238Y-75473333D01*
X158990476Y-75520952D01*
X159038095Y-75568571D01*
X159085714Y-75663809D01*
X159085714Y-75901904D01*
X159038095Y-75997142D01*
X158990476Y-76044761D01*
X158895238Y-76092380D01*
X158609523Y-76092380D01*
X158514285Y-76044761D01*
X158466666Y-75997142D01*
%TO.C,R2*%
X130643333Y-71572380D02*
X130310000Y-71096190D01*
X130071904Y-71572380D02*
X130071904Y-70572380D01*
X130452857Y-70572380D01*
X130548095Y-70620000D01*
X130595714Y-70667619D01*
X130643333Y-70762857D01*
X130643333Y-70905714D01*
X130595714Y-71000952D01*
X130548095Y-71048571D01*
X130452857Y-71096190D01*
X130071904Y-71096190D01*
X131024285Y-70667619D02*
X131071904Y-70620000D01*
X131167142Y-70572380D01*
X131405238Y-70572380D01*
X131500476Y-70620000D01*
X131548095Y-70667619D01*
X131595714Y-70762857D01*
X131595714Y-70858095D01*
X131548095Y-71000952D01*
X130976666Y-71572380D01*
X131595714Y-71572380D01*
%TO.C,R1*%
X131641333Y-64841380D02*
X131308000Y-64365190D01*
X131069904Y-64841380D02*
X131069904Y-63841380D01*
X131450857Y-63841380D01*
X131546095Y-63889000D01*
X131593714Y-63936619D01*
X131641333Y-64031857D01*
X131641333Y-64174714D01*
X131593714Y-64269952D01*
X131546095Y-64317571D01*
X131450857Y-64365190D01*
X131069904Y-64365190D01*
X132593714Y-64841380D02*
X132022285Y-64841380D01*
X132308000Y-64841380D02*
X132308000Y-63841380D01*
X132212761Y-63984238D01*
X132117523Y-64079476D01*
X132022285Y-64127095D01*
%TO.C,Q1*%
X159670761Y-63031619D02*
X159575523Y-62984000D01*
X159480285Y-62888761D01*
X159337428Y-62745904D01*
X159242190Y-62698285D01*
X159146952Y-62698285D01*
X159194571Y-62936380D02*
X159099333Y-62888761D01*
X159004095Y-62793523D01*
X158956476Y-62603047D01*
X158956476Y-62269714D01*
X159004095Y-62079238D01*
X159099333Y-61984000D01*
X159194571Y-61936380D01*
X159385047Y-61936380D01*
X159480285Y-61984000D01*
X159575523Y-62079238D01*
X159623142Y-62269714D01*
X159623142Y-62603047D01*
X159575523Y-62793523D01*
X159480285Y-62888761D01*
X159385047Y-62936380D01*
X159194571Y-62936380D01*
X160575523Y-62936380D02*
X160004095Y-62936380D01*
X160289809Y-62936380D02*
X160289809Y-61936380D01*
X160194571Y-62079238D01*
X160099333Y-62174476D01*
X160004095Y-62222095D01*
%TO.C,LS1*%
X167252380Y-80782857D02*
X167252380Y-81259047D01*
X166252380Y-81259047D01*
X167204761Y-80497142D02*
X167252380Y-80354285D01*
X167252380Y-80116190D01*
X167204761Y-80020952D01*
X167157142Y-79973333D01*
X167061904Y-79925714D01*
X166966666Y-79925714D01*
X166871428Y-79973333D01*
X166823809Y-80020952D01*
X166776190Y-80116190D01*
X166728571Y-80306666D01*
X166680952Y-80401904D01*
X166633333Y-80449523D01*
X166538095Y-80497142D01*
X166442857Y-80497142D01*
X166347619Y-80449523D01*
X166300000Y-80401904D01*
X166252380Y-80306666D01*
X166252380Y-80068571D01*
X166300000Y-79925714D01*
X167252380Y-78973333D02*
X167252380Y-79544761D01*
X167252380Y-79259047D02*
X166252380Y-79259047D01*
X166395238Y-79354285D01*
X166490476Y-79449523D01*
X166538095Y-79544761D01*
%TO.C,J4*%
X139362380Y-101933333D02*
X140076666Y-101933333D01*
X140219523Y-101980952D01*
X140314761Y-102076190D01*
X140362380Y-102219047D01*
X140362380Y-102314285D01*
X139695714Y-101028571D02*
X140362380Y-101028571D01*
X139314761Y-101266666D02*
X140029047Y-101504761D01*
X140029047Y-100885714D01*
%TO.C,J3*%
X162222380Y-101933333D02*
X162936666Y-101933333D01*
X163079523Y-101980952D01*
X163174761Y-102076190D01*
X163222380Y-102219047D01*
X163222380Y-102314285D01*
X162222380Y-101552380D02*
X162222380Y-100933333D01*
X162603333Y-101266666D01*
X162603333Y-101123809D01*
X162650952Y-101028571D01*
X162698571Y-100980952D01*
X162793809Y-100933333D01*
X163031904Y-100933333D01*
X163127142Y-100980952D01*
X163174761Y-101028571D01*
X163222380Y-101123809D01*
X163222380Y-101409523D01*
X163174761Y-101504761D01*
X163127142Y-101552380D01*
%TO.C,J2*%
X159218380Y-56467333D02*
X159932666Y-56467333D01*
X160075523Y-56514952D01*
X160170761Y-56610190D01*
X160218380Y-56753047D01*
X160218380Y-56848285D01*
X159313619Y-56038761D02*
X159266000Y-55991142D01*
X159218380Y-55895904D01*
X159218380Y-55657809D01*
X159266000Y-55562571D01*
X159313619Y-55514952D01*
X159408857Y-55467333D01*
X159504095Y-55467333D01*
X159646952Y-55514952D01*
X160218380Y-56086380D01*
X160218380Y-55467333D01*
%TO.C,J1*%
X155408380Y-56467333D02*
X156122666Y-56467333D01*
X156265523Y-56514952D01*
X156360761Y-56610190D01*
X156408380Y-56753047D01*
X156408380Y-56848285D01*
X156408380Y-55467333D02*
X156408380Y-56038761D01*
X156408380Y-55753047D02*
X155408380Y-55753047D01*
X155551238Y-55848285D01*
X155646476Y-55943523D01*
X155694095Y-56038761D01*
%TO.C,D1*%
X127658904Y-61793380D02*
X127658904Y-60793380D01*
X127897000Y-60793380D01*
X128039857Y-60841000D01*
X128135095Y-60936238D01*
X128182714Y-61031476D01*
X128230333Y-61221952D01*
X128230333Y-61364809D01*
X128182714Y-61555285D01*
X128135095Y-61650523D01*
X128039857Y-61745761D01*
X127897000Y-61793380D01*
X127658904Y-61793380D01*
X129182714Y-61793380D02*
X128611285Y-61793380D01*
X128897000Y-61793380D02*
X128897000Y-60793380D01*
X128801761Y-60936238D01*
X128706523Y-61031476D01*
X128611285Y-61079095D01*
%TO.C,C5*%
X138009333Y-59666142D02*
X137961714Y-59713761D01*
X137818857Y-59761380D01*
X137723619Y-59761380D01*
X137580761Y-59713761D01*
X137485523Y-59618523D01*
X137437904Y-59523285D01*
X137390285Y-59332809D01*
X137390285Y-59189952D01*
X137437904Y-58999476D01*
X137485523Y-58904238D01*
X137580761Y-58809000D01*
X137723619Y-58761380D01*
X137818857Y-58761380D01*
X137961714Y-58809000D01*
X138009333Y-58856619D01*
X138914095Y-58761380D02*
X138437904Y-58761380D01*
X138390285Y-59237571D01*
X138437904Y-59189952D01*
X138533142Y-59142333D01*
X138771238Y-59142333D01*
X138866476Y-59189952D01*
X138914095Y-59237571D01*
X138961714Y-59332809D01*
X138961714Y-59570904D01*
X138914095Y-59666142D01*
X138866476Y-59713761D01*
X138771238Y-59761380D01*
X138533142Y-59761380D01*
X138437904Y-59713761D01*
X138390285Y-59666142D01*
%TO.C,C4*%
X153133333Y-73497142D02*
X153085714Y-73544761D01*
X152942857Y-73592380D01*
X152847619Y-73592380D01*
X152704761Y-73544761D01*
X152609523Y-73449523D01*
X152561904Y-73354285D01*
X152514285Y-73163809D01*
X152514285Y-73020952D01*
X152561904Y-72830476D01*
X152609523Y-72735238D01*
X152704761Y-72640000D01*
X152847619Y-72592380D01*
X152942857Y-72592380D01*
X153085714Y-72640000D01*
X153133333Y-72687619D01*
X153990476Y-72925714D02*
X153990476Y-73592380D01*
X153752380Y-72544761D02*
X153514285Y-73259047D01*
X154133333Y-73259047D01*
%TO.C,C3*%
X142327333Y-78999142D02*
X142279714Y-79046761D01*
X142136857Y-79094380D01*
X142041619Y-79094380D01*
X141898761Y-79046761D01*
X141803523Y-78951523D01*
X141755904Y-78856285D01*
X141708285Y-78665809D01*
X141708285Y-78522952D01*
X141755904Y-78332476D01*
X141803523Y-78237238D01*
X141898761Y-78142000D01*
X142041619Y-78094380D01*
X142136857Y-78094380D01*
X142279714Y-78142000D01*
X142327333Y-78189619D01*
X142660666Y-78094380D02*
X143279714Y-78094380D01*
X142946380Y-78475333D01*
X143089238Y-78475333D01*
X143184476Y-78522952D01*
X143232095Y-78570571D01*
X143279714Y-78665809D01*
X143279714Y-78903904D01*
X143232095Y-78999142D01*
X143184476Y-79046761D01*
X143089238Y-79094380D01*
X142803523Y-79094380D01*
X142708285Y-79046761D01*
X142660666Y-78999142D01*
%TO.C,C2*%
X136231333Y-66778142D02*
X136183714Y-66825761D01*
X136040857Y-66873380D01*
X135945619Y-66873380D01*
X135802761Y-66825761D01*
X135707523Y-66730523D01*
X135659904Y-66635285D01*
X135612285Y-66444809D01*
X135612285Y-66301952D01*
X135659904Y-66111476D01*
X135707523Y-66016238D01*
X135802761Y-65921000D01*
X135945619Y-65873380D01*
X136040857Y-65873380D01*
X136183714Y-65921000D01*
X136231333Y-65968619D01*
X136612285Y-65968619D02*
X136659904Y-65921000D01*
X136755142Y-65873380D01*
X136993238Y-65873380D01*
X137088476Y-65921000D01*
X137136095Y-65968619D01*
X137183714Y-66063857D01*
X137183714Y-66159095D01*
X137136095Y-66301952D01*
X136564666Y-66873380D01*
X137183714Y-66873380D01*
%TO.C,C1*%
X130643333Y-74525142D02*
X130595714Y-74572761D01*
X130452857Y-74620380D01*
X130357619Y-74620380D01*
X130214761Y-74572761D01*
X130119523Y-74477523D01*
X130071904Y-74382285D01*
X130024285Y-74191809D01*
X130024285Y-74048952D01*
X130071904Y-73858476D01*
X130119523Y-73763238D01*
X130214761Y-73668000D01*
X130357619Y-73620380D01*
X130452857Y-73620380D01*
X130595714Y-73668000D01*
X130643333Y-73715619D01*
X131595714Y-74620380D02*
X131024285Y-74620380D01*
X131310000Y-74620380D02*
X131310000Y-73620380D01*
X131214761Y-73763238D01*
X131119523Y-73858476D01*
X131024285Y-73906095D01*
%TD*%
M02*
